<?xml version="1.0" encoding="UTF-8" standalone="no"?>
<!-- Created with Inkscape (http://www.inkscape.org/) -->

<svg
   width="210mm"
   height="297mm"
   viewBox="0 0 210 297"
   version="1.1"
   id="svg1"
   xml:space="preserve"
   inkscape:version="1.3.2 (091e20e, 2023-11-25, custom)"
   sodipodi:docname="Employify LOGO v1.svg"
   xmlns:inkscape="http://www.inkscape.org/namespaces/inkscape"
   xmlns:sodipodi="http://sodipodi.sourceforge.net/DTD/sodipodi-0.dtd"
   xmlns="http://www.w3.org/2000/svg"
   xmlns:svg="http://www.w3.org/2000/svg"><sodipodi:namedview
     id="namedview1"
     pagecolor="#505050"
     bordercolor="#ffffff"
     borderopacity="1"
     inkscape:showpageshadow="0"
     inkscape:pageopacity="0"
     inkscape:pagecheckerboard="1"
     inkscape:deskcolor="#505050"
     inkscape:document-units="mm"
     showguides="true"
     inkscape:zoom="1"
     inkscape:cx="276"
     inkscape:cy="432.5"
     inkscape:window-width="1920"
     inkscape:window-height="1009"
     inkscape:window-x="-8"
     inkscape:window-y="-8"
     inkscape:window-maximized="1"
     inkscape:current-layer="layer1"><sodipodi:guide
       position="100.61399,196.1277"
       orientation="1,0"
       id="guide1"
       inkscape:locked="false" /><sodipodi:guide
       position="74.524096,198.71086"
       orientation="0,-1"
       id="guide2"
       inkscape:locked="false" /></sodipodi:namedview><defs
     id="defs1" /><g
     inkscape:label="Camada 1"
     inkscape:groupmode="layer"
     id="layer1"><ellipse
       style="fill:#ffffff;fill-opacity:1;stroke:#000000;stroke-width:2.365;stroke-dasharray:none;stroke-opacity:1"
       id="path10"
       cx="102.83579"
       cy="162.0166"
       rx="59.546127"
       ry="56.258301" /><path
       style="display:inline;fill:#06003f;fill-opacity:1;stroke:#000000;stroke-width:2.365;stroke-dasharray:none;stroke-opacity:1"
       d="m 60.642065,105.39299 0.547971,20.45756 c 9.68099,9.84673 24.33449,16.0771 39.271214,22.10148 13.39699,-4.80027 25.91921,-13.537 38.35794,-22.64945 l 1.09594,-21.18819 z"
       id="path3"
       sodipodi:nodetypes="cccccc" /><path
       style="display:inline;fill:#ffffff;fill-opacity:1;stroke:#000000;stroke-width:2.365;stroke-dasharray:none;stroke-opacity:1"
       d="M 100.74315,70.132728 C 81.761598,78.20413 63.671075,87.46357 46.755153,98.289146 c 10.563443,9.824524 32.035914,24.872354 54.375467,31.256204 18.51575,-5.97121 36.80129,-19.47708 50.50073,-31.127045 -12.98098,-10.976985 -31.83786,-19.6689 -50.8882,-28.285577 z"
       id="path2"
       sodipodi:nodetypes="ccccc" /><ellipse
       style="fill:#05002e;fill-opacity:1;stroke:none;stroke-width:2.52896;stroke-dasharray:none;stroke-opacity:1"
       id="path9"
       cx="115.75302"
       cy="77.397125"
       rx="8.7504463"
       ry="6.9422359"
       transform="rotate(10.404946)" /><path
       style="fill:#ffffff;fill-opacity:1;stroke:#000000;stroke-width:2.365;stroke-dasharray:none;stroke-opacity:1"
       d="m 105.19767,103.28247 18.24936,4.17688 c 16.77699,3.28366 14.29009,30.1503 14.55748,40.96325 h 9.86347 c 1.19708,-16.63199 -1.37428,-43.21959 -10.58223,-45.78609 L 111.1432,93.924552 c -18.009595,-5.7884 -21.514549,5.700729 -5.94553,9.357918 z"
       id="path4"
       sodipodi:nodetypes="ccccccc" /><path
       style="fill:#e1c000;fill-opacity:1;stroke:#000000;stroke-width:2.365;stroke-dasharray:none;stroke-opacity:1"
       d="m 137.81054,153.36459 c -3.15621,5.60071 -5.4144,11.96575 -6.27882,17.90038 l 4.06411,-3.42482 -2.83118,8.17389 c -0.91381,3.37521 -0.44933,6.70534 4.3381,7.16928 l 5.66236,0.18266 c 5.48342,0.1691 8.02599,-2.24976 7.99123,-8.0369 -0.288,-9.09539 -1.61138,-15.53107 -2.53598,-22.80124 z"
       id="path8"
       sodipodi:nodetypes="ccccccccc" /><ellipse
       style="fill:#05002e;fill-opacity:1;stroke:#000000;stroke-width:2.365;stroke-dasharray:none;stroke-opacity:1"
       id="path5"
       cx="142.92897"
       cy="150.00691"
       rx="5.9591789"
       ry="2.9681733" /><path
       style="fill:#06003f;fill-opacity:1;stroke:none;stroke-width:0.265;stroke-dasharray:none;stroke-opacity:1"
       d="m 86.991196,154.79707 -0.09687,27.95472 c -0.109861,7.19063 2.94156,12.01421 9.24174,7.76435 l 18.993444,-13.18675 c 9.12941,-6.56274 5.77002,-10.17633 -1.42168,-14.60622 l -16.361859,-9.98186 c -2.140509,-1.21453 -10.239473,-5.60819 -10.354777,2.05576 z"
       id="path11"
       sodipodi:nodetypes="cccccccc" /><path
       style="fill:#a6a6a6;fill-opacity:1;stroke:none;stroke-width:0.264999;stroke-dasharray:none;stroke-opacity:1"
       d="m 50.804711,186.95279 c -5.150969,-8.82585 -5.589185,-14.68442 -6.221573,-20.66524 -0.04818,-2.6834 -0.280232,-5.46895 0.02476,-7.95614 1.704443,8.22305 7.054705,24.72836 18.808616,38.11773 l -3.09979,-15.24063 c 6.333922,28.39742 33.174069,32.44594 62.649402,32.56345 -6.64082,2.03063 -13.93971,4.49733 -29.597965,2.74096 -8.898802,-1.8656 -12.333692,-3.27588 -15.502748,-4.664 -12.166048,-5.5288 -21.486455,-13.67796 -27.060706,-24.89613 z"
       id="path12"
       sodipodi:nodetypes="ccccccccc" /><path
       style="fill:#a6a6a6;fill-opacity:1;stroke:none;stroke-width:0.264999;stroke-dasharray:none;stroke-opacity:1"
       d="m 139.16167,146.46794 c 0.7128,-0.24504 1.45447,-0.42901 2.22613,-0.46805 -0.11135,-10.46898 -0.73375,-17.13923 -2.48512,-27.12242 -2.78011,-9.63642 -6.73778,-11.87277 -10.4036,-12.98218 L 96.515581,96.30153 c -0.0035,1.03657 1.317337,3.371066 6.505719,5.1358 2.34312,0.77778 5.07588,1.2958 7.66698,1.90826 l 14.06633,3.189 c 3.48815,1.27515 8.48674,3.45887 11.46172,11.64437 3.27485,8.08913 2.80647,18.3415 2.94534,28.28898 z"
       id="path13"
       sodipodi:nodetypes="cccccccccc" /><path
       style="fill:#968000;fill-opacity:1;stroke:none;stroke-width:0.264999;stroke-dasharray:none;stroke-opacity:1"
       d="m 138.52989,154.50511 -1.55796,8.36298 4.13305,-2.55087 c -2.87664,7.7471 -4.13766,13.92918 -2.46234,21.73339 -0.50468,-0.0119 -1.05626,0.0443 -1.64573,-0.0503 -2.1871,-0.35082 -4.30531,-1.10173 -3.07569,-5.71739 l 4.19601,-12.1156 -4.81505,4.06936 c 1.04507,-5.71057 3.1845,-9.91619 5.22771,-13.73159 z"
       id="path14"
       sodipodi:nodetypes="ccccsccccc" /><path
       style="fill:#a6a6a6;fill-opacity:1;stroke:none;stroke-width:0.264999;stroke-dasharray:none;stroke-opacity:1"
       d="m 101.00469,128.38906 c -9.07311,-5.74666 -16.969518,-12.172 -23.283337,-19.64531 l 2.943489,7.47448 C 69.59956,110.77617 59.13624,103.92224 52.718342,95.939544 l -4.030166,2.490298 c 18.607873,17.090538 37.83087,25.254678 52.316514,29.959218 z"
       id="path15"
       sodipodi:nodetypes="cccccc" /><path
       style="fill:#03001a;fill-opacity:1;stroke:none;stroke-width:0.264999;stroke-dasharray:none;stroke-opacity:1"
       d="m 61.996151,111.75932 8.851987,15.60129 -2.46723,-6.68842 c 7.165473,10.5422 21.392225,17.44677 32.249402,26.08718 -12.541599,-5.26101 -25.344077,-9.76195 -38.42333,-21.1761 z"
       id="path16"
       sodipodi:nodetypes="cccccc" /></g></svg>
